<mxfile host="app.diagrams.net" modified="2021-06-29T08:36:01.948Z" agent="5.0 (X11; Linux x86_64) AppleWebKit/537.36 (KHTML, like Gecko) Chrome/89.0.4389.114 Safari/537.36" etag="MZ-N0DEtBTeVuuc6vEbd" version="14.8.2" type="github">
  <diagram id="iu9soF175dnIHMrGtUAB" name="Page-1">
    <mxGraphModel dx="1595" dy="774" grid="1" gridSize="10" guides="1" tooltips="1" connect="1" arrows="1" fold="1" page="1" pageScale="1" pageWidth="850" pageHeight="1100" math="0" shadow="0">
      <root>
        <mxCell id="0" />
        <mxCell id="1" parent="0" />
        <mxCell id="Zur8WcbYSqsSACDa6_yI-3" style="edgeStyle=orthogonalEdgeStyle;rounded=0;orthogonalLoop=1;jettySize=auto;html=1;" edge="1" parent="1" source="InqaxpvknE1-JUGwuAyR-2">
          <mxGeometry relative="1" as="geometry">
            <mxPoint x="440" y="208" as="targetPoint" />
          </mxGeometry>
        </mxCell>
        <mxCell id="InqaxpvknE1-JUGwuAyR-2" value="" style="rounded=0;whiteSpace=wrap;html=1;" parent="1" vertex="1">
          <mxGeometry x="20" y="110" width="310" height="195" as="geometry" />
        </mxCell>
        <mxCell id="InqaxpvknE1-JUGwuAyR-16" value="upload and preview excel file" style="shape=ext;double=1;rounded=0;whiteSpace=wrap;html=1;" parent="1" vertex="1">
          <mxGeometry x="30" y="125" width="115" height="35" as="geometry" />
        </mxCell>
        <mxCell id="Zur8WcbYSqsSACDa6_yI-19" style="edgeStyle=orthogonalEdgeStyle;rounded=0;orthogonalLoop=1;jettySize=auto;html=1;exitX=1;exitY=0.5;exitDx=0;exitDy=0;entryX=0;entryY=0.5;entryDx=0;entryDy=0;" edge="1" parent="1" source="InqaxpvknE1-JUGwuAyR-19" target="Zur8WcbYSqsSACDa6_yI-4">
          <mxGeometry relative="1" as="geometry">
            <mxPoint x="1040" y="205" as="targetPoint" />
            <Array as="points">
              <mxPoint x="780" y="203" />
              <mxPoint x="1050" y="203" />
            </Array>
          </mxGeometry>
        </mxCell>
        <mxCell id="InqaxpvknE1-JUGwuAyR-19" value="" style="rounded=0;whiteSpace=wrap;html=1;" parent="1" vertex="1">
          <mxGeometry x="450" y="100" width="330" height="210" as="geometry" />
        </mxCell>
        <mxCell id="InqaxpvknE1-JUGwuAyR-20" value="Uploaded on boarded Merchant List" style="shape=table;startSize=30;container=1;collapsible=0;childLayout=tableLayout;fontStyle=1;align=center;" parent="1" vertex="1">
          <mxGeometry x="460" y="135" width="290" height="135" as="geometry" />
        </mxCell>
        <mxCell id="InqaxpvknE1-JUGwuAyR-21" value="" style="shape=partialRectangle;html=1;whiteSpace=wrap;collapsible=0;dropTarget=0;pointerEvents=0;fillColor=none;top=0;left=0;bottom=0;right=0;points=[[0,0.5],[1,0.5]];portConstraint=eastwest;" parent="InqaxpvknE1-JUGwuAyR-20" vertex="1">
          <mxGeometry y="30" width="290" height="35" as="geometry" />
        </mxCell>
        <mxCell id="InqaxpvknE1-JUGwuAyR-22" value="" style="shape=partialRectangle;html=1;whiteSpace=wrap;connectable=0;fillColor=none;top=0;left=0;bottom=0;right=0;overflow=hidden;" parent="InqaxpvknE1-JUGwuAyR-21" vertex="1">
          <mxGeometry width="60" height="35" as="geometry" />
        </mxCell>
        <mxCell id="InqaxpvknE1-JUGwuAyR-23" value="" style="shape=partialRectangle;html=1;whiteSpace=wrap;connectable=0;fillColor=none;top=0;left=0;bottom=0;right=0;overflow=hidden;" parent="InqaxpvknE1-JUGwuAyR-21" vertex="1">
          <mxGeometry x="60" width="60" height="35" as="geometry" />
        </mxCell>
        <mxCell id="InqaxpvknE1-JUGwuAyR-24" value="" style="shape=partialRectangle;html=1;whiteSpace=wrap;connectable=0;fillColor=none;top=0;left=0;bottom=0;right=0;overflow=hidden;" parent="InqaxpvknE1-JUGwuAyR-21" vertex="1">
          <mxGeometry x="120" width="170" height="35" as="geometry" />
        </mxCell>
        <mxCell id="InqaxpvknE1-JUGwuAyR-25" value="" style="shape=partialRectangle;html=1;whiteSpace=wrap;collapsible=0;dropTarget=0;pointerEvents=0;fillColor=none;top=0;left=0;bottom=0;right=0;points=[[0,0.5],[1,0.5]];portConstraint=eastwest;" parent="InqaxpvknE1-JUGwuAyR-20" vertex="1">
          <mxGeometry y="65" width="290" height="35" as="geometry" />
        </mxCell>
        <mxCell id="InqaxpvknE1-JUGwuAyR-26" value="" style="shape=partialRectangle;html=1;whiteSpace=wrap;connectable=0;fillColor=none;top=0;left=0;bottom=0;right=0;overflow=hidden;" parent="InqaxpvknE1-JUGwuAyR-25" vertex="1">
          <mxGeometry width="60" height="35" as="geometry" />
        </mxCell>
        <mxCell id="InqaxpvknE1-JUGwuAyR-27" value="" style="shape=partialRectangle;html=1;whiteSpace=wrap;connectable=0;fillColor=none;top=0;left=0;bottom=0;right=0;overflow=hidden;" parent="InqaxpvknE1-JUGwuAyR-25" vertex="1">
          <mxGeometry x="60" width="60" height="35" as="geometry" />
        </mxCell>
        <mxCell id="InqaxpvknE1-JUGwuAyR-28" value="" style="shape=partialRectangle;html=1;whiteSpace=wrap;connectable=0;fillColor=none;top=0;left=0;bottom=0;right=0;overflow=hidden;" parent="InqaxpvknE1-JUGwuAyR-25" vertex="1">
          <mxGeometry x="120" width="170" height="35" as="geometry" />
        </mxCell>
        <mxCell id="InqaxpvknE1-JUGwuAyR-29" value="" style="shape=partialRectangle;html=1;whiteSpace=wrap;collapsible=0;dropTarget=0;pointerEvents=0;fillColor=none;top=0;left=0;bottom=0;right=0;points=[[0,0.5],[1,0.5]];portConstraint=eastwest;" parent="InqaxpvknE1-JUGwuAyR-20" vertex="1">
          <mxGeometry y="100" width="290" height="35" as="geometry" />
        </mxCell>
        <mxCell id="InqaxpvknE1-JUGwuAyR-30" value="" style="shape=partialRectangle;html=1;whiteSpace=wrap;connectable=0;fillColor=none;top=0;left=0;bottom=0;right=0;overflow=hidden;" parent="InqaxpvknE1-JUGwuAyR-29" vertex="1">
          <mxGeometry width="60" height="35" as="geometry" />
        </mxCell>
        <mxCell id="InqaxpvknE1-JUGwuAyR-31" value="" style="shape=partialRectangle;html=1;whiteSpace=wrap;connectable=0;fillColor=none;top=0;left=0;bottom=0;right=0;overflow=hidden;" parent="InqaxpvknE1-JUGwuAyR-29" vertex="1">
          <mxGeometry x="60" width="60" height="35" as="geometry" />
        </mxCell>
        <mxCell id="InqaxpvknE1-JUGwuAyR-32" value="" style="shape=partialRectangle;html=1;whiteSpace=wrap;connectable=0;fillColor=none;top=0;left=0;bottom=0;right=0;overflow=hidden;" parent="InqaxpvknE1-JUGwuAyR-29" vertex="1">
          <mxGeometry x="120" width="170" height="35" as="geometry" />
        </mxCell>
        <mxCell id="InqaxpvknE1-JUGwuAyR-34" value="upload excel file" style="rounded=1;whiteSpace=wrap;html=1;" parent="1" vertex="1">
          <mxGeometry x="660" y="280" width="100" height="20" as="geometry" />
        </mxCell>
        <mxCell id="InqaxpvknE1-JUGwuAyR-35" value="Preview excel file" style="text;html=1;strokeColor=none;fillColor=none;align=center;verticalAlign=middle;whiteSpace=wrap;rounded=0;" parent="1" vertex="1">
          <mxGeometry x="425" y="105" width="170" height="20" as="geometry" />
        </mxCell>
        <mxCell id="InqaxpvknE1-JUGwuAyR-36" value="" style="rounded=0;whiteSpace=wrap;html=1;" parent="1" vertex="1">
          <mxGeometry x="40" y="480" width="340" height="270" as="geometry" />
        </mxCell>
        <mxCell id="InqaxpvknE1-JUGwuAyR-38" value="upload excel file" style="shape=ext;double=1;rounded=0;whiteSpace=wrap;html=1;" parent="1" vertex="1">
          <mxGeometry x="60" y="515" width="115" height="35" as="geometry" />
        </mxCell>
        <mxCell id="InqaxpvknE1-JUGwuAyR-39" value="" style="endArrow=classic;html=1;entryX=0;entryY=0.5;entryDx=0;entryDy=0;exitX=1;exitY=0.25;exitDx=0;exitDy=0;" parent="1" edge="1" source="InqaxpvknE1-JUGwuAyR-36">
          <mxGeometry width="50" height="50" relative="1" as="geometry">
            <mxPoint x="450" y="549.5" as="sourcePoint" />
            <mxPoint x="510" y="549" as="targetPoint" />
            <Array as="points" />
          </mxGeometry>
        </mxCell>
        <mxCell id="Zur8WcbYSqsSACDa6_yI-48" style="edgeStyle=orthogonalEdgeStyle;rounded=0;orthogonalLoop=1;jettySize=auto;html=1;exitX=1;exitY=0.5;exitDx=0;exitDy=0;entryX=-0.003;entryY=0.559;entryDx=0;entryDy=0;entryPerimeter=0;" edge="1" parent="1" source="InqaxpvknE1-JUGwuAyR-40" target="InqaxpvknE1-JUGwuAyR-42">
          <mxGeometry relative="1" as="geometry">
            <mxPoint x="1000" y="510" as="targetPoint" />
            <Array as="points">
              <mxPoint x="830" y="563" />
            </Array>
          </mxGeometry>
        </mxCell>
        <mxCell id="InqaxpvknE1-JUGwuAyR-40" value="" style="rounded=0;whiteSpace=wrap;html=1;" parent="1" vertex="1">
          <mxGeometry x="510" y="495" width="320" height="140" as="geometry" />
        </mxCell>
        <mxCell id="InqaxpvknE1-JUGwuAyR-41" value="After successful upload user will get btach id which can be used to know the status for bulk upload from the table." style="rounded=1;whiteSpace=wrap;html=1;" parent="1" vertex="1">
          <mxGeometry x="590" y="530" width="190" height="60" as="geometry" />
        </mxCell>
        <mxCell id="InqaxpvknE1-JUGwuAyR-42" value="" style="rounded=0;whiteSpace=wrap;html=1;" parent="1" vertex="1">
          <mxGeometry x="1010" y="440" width="395" height="220" as="geometry" />
        </mxCell>
        <mxCell id="InqaxpvknE1-JUGwuAyR-58" value="&lt;b&gt;&lt;font style=&quot;font-size: 18px&quot;&gt;Option&amp;nbsp; 1: User will preview the excel file first then upload&lt;/font&gt;&lt;/b&gt;" style="text;html=1;strokeColor=none;fillColor=none;align=center;verticalAlign=middle;whiteSpace=wrap;rounded=0;" parent="1" vertex="1">
          <mxGeometry x="30" y="70" width="530" height="20" as="geometry" />
        </mxCell>
        <mxCell id="InqaxpvknE1-JUGwuAyR-59" value="&lt;b&gt;&lt;font style=&quot;font-size: 18px&quot;&gt;Option&amp;nbsp; 2: User will only upload the excel file and seen updated file list in data table:&lt;/font&gt;&lt;/b&gt;" style="text;html=1;strokeColor=none;fillColor=none;align=center;verticalAlign=middle;whiteSpace=wrap;rounded=0;" parent="1" vertex="1">
          <mxGeometry x="40" y="400" width="740" height="20" as="geometry" />
        </mxCell>
        <mxCell id="InqaxpvknE1-JUGwuAyR-61" value="" style="endArrow=none;dashed=1;html=1;" parent="1" edge="1">
          <mxGeometry width="50" height="50" relative="1" as="geometry">
            <mxPoint x="30" y="380" as="sourcePoint" />
            <mxPoint x="820" y="380" as="targetPoint" />
            <Array as="points">
              <mxPoint x="430" y="380" />
            </Array>
          </mxGeometry>
        </mxCell>
        <mxCell id="InqaxpvknE1-JUGwuAyR-62" value="" style="shape=link;html=1;" parent="1" edge="1">
          <mxGeometry width="100" relative="1" as="geometry">
            <mxPoint x="30" y="380" as="sourcePoint" />
            <mxPoint x="1460" y="380" as="targetPoint" />
          </mxGeometry>
        </mxCell>
        <mxCell id="Zur8WcbYSqsSACDa6_yI-4" value="" style="rounded=0;whiteSpace=wrap;html=1;" vertex="1" parent="1">
          <mxGeometry x="1078" y="92.5" width="395" height="220" as="geometry" />
        </mxCell>
        <mxCell id="Zur8WcbYSqsSACDa6_yI-6" value="Fetch bulk onboard merchants status list" style="shape=table;startSize=30;container=1;collapsible=0;childLayout=tableLayout;fontStyle=1;align=center;" vertex="1" parent="1">
          <mxGeometry x="30" y="170" width="270" height="110" as="geometry" />
        </mxCell>
        <mxCell id="Zur8WcbYSqsSACDa6_yI-7" value="" style="shape=partialRectangle;html=1;whiteSpace=wrap;collapsible=0;dropTarget=0;pointerEvents=0;fillColor=none;top=0;left=0;bottom=0;right=0;points=[[0,0.5],[1,0.5]];portConstraint=eastwest;" vertex="1" parent="Zur8WcbYSqsSACDa6_yI-6">
          <mxGeometry y="30" width="270" height="27" as="geometry" />
        </mxCell>
        <mxCell id="Zur8WcbYSqsSACDa6_yI-8" value="" style="shape=partialRectangle;html=1;whiteSpace=wrap;connectable=0;fillColor=none;top=0;left=0;bottom=0;right=0;overflow=hidden;" vertex="1" parent="Zur8WcbYSqsSACDa6_yI-7">
          <mxGeometry width="40" height="27" as="geometry" />
        </mxCell>
        <mxCell id="Zur8WcbYSqsSACDa6_yI-9" value="No data avialable Now" style="shape=partialRectangle;html=1;whiteSpace=wrap;connectable=0;fillColor=none;top=0;left=0;bottom=0;right=0;overflow=hidden;" vertex="1" parent="Zur8WcbYSqsSACDa6_yI-7">
          <mxGeometry x="40" width="180" height="27" as="geometry" />
        </mxCell>
        <mxCell id="Zur8WcbYSqsSACDa6_yI-10" value="" style="shape=partialRectangle;html=1;whiteSpace=wrap;connectable=0;fillColor=none;top=0;left=0;bottom=0;right=0;overflow=hidden;" vertex="1" parent="Zur8WcbYSqsSACDa6_yI-7">
          <mxGeometry x="220" width="50" height="27" as="geometry" />
        </mxCell>
        <mxCell id="Zur8WcbYSqsSACDa6_yI-11" value="" style="shape=partialRectangle;html=1;whiteSpace=wrap;collapsible=0;dropTarget=0;pointerEvents=0;fillColor=none;top=0;left=0;bottom=0;right=0;points=[[0,0.5],[1,0.5]];portConstraint=eastwest;" vertex="1" parent="Zur8WcbYSqsSACDa6_yI-6">
          <mxGeometry y="57" width="270" height="26" as="geometry" />
        </mxCell>
        <mxCell id="Zur8WcbYSqsSACDa6_yI-12" value="" style="shape=partialRectangle;html=1;whiteSpace=wrap;connectable=0;fillColor=none;top=0;left=0;bottom=0;right=0;overflow=hidden;" vertex="1" parent="Zur8WcbYSqsSACDa6_yI-11">
          <mxGeometry width="40" height="26" as="geometry" />
        </mxCell>
        <mxCell id="Zur8WcbYSqsSACDa6_yI-13" value="" style="shape=partialRectangle;html=1;whiteSpace=wrap;connectable=0;fillColor=none;top=0;left=0;bottom=0;right=0;overflow=hidden;" vertex="1" parent="Zur8WcbYSqsSACDa6_yI-11">
          <mxGeometry x="40" width="180" height="26" as="geometry" />
        </mxCell>
        <mxCell id="Zur8WcbYSqsSACDa6_yI-14" value="" style="shape=partialRectangle;html=1;whiteSpace=wrap;connectable=0;fillColor=none;top=0;left=0;bottom=0;right=0;overflow=hidden;" vertex="1" parent="Zur8WcbYSqsSACDa6_yI-11">
          <mxGeometry x="220" width="50" height="26" as="geometry" />
        </mxCell>
        <mxCell id="Zur8WcbYSqsSACDa6_yI-15" value="" style="shape=partialRectangle;html=1;whiteSpace=wrap;collapsible=0;dropTarget=0;pointerEvents=0;fillColor=none;top=0;left=0;bottom=0;right=0;points=[[0,0.5],[1,0.5]];portConstraint=eastwest;" vertex="1" parent="Zur8WcbYSqsSACDa6_yI-6">
          <mxGeometry y="83" width="270" height="27" as="geometry" />
        </mxCell>
        <mxCell id="Zur8WcbYSqsSACDa6_yI-16" value="" style="shape=partialRectangle;html=1;whiteSpace=wrap;connectable=0;fillColor=none;top=0;left=0;bottom=0;right=0;overflow=hidden;" vertex="1" parent="Zur8WcbYSqsSACDa6_yI-15">
          <mxGeometry width="40" height="27" as="geometry" />
        </mxCell>
        <mxCell id="Zur8WcbYSqsSACDa6_yI-17" value="" style="shape=partialRectangle;html=1;whiteSpace=wrap;connectable=0;fillColor=none;top=0;left=0;bottom=0;right=0;overflow=hidden;" vertex="1" parent="Zur8WcbYSqsSACDa6_yI-15">
          <mxGeometry x="40" width="180" height="27" as="geometry" />
        </mxCell>
        <mxCell id="Zur8WcbYSqsSACDa6_yI-18" value="" style="shape=partialRectangle;html=1;whiteSpace=wrap;connectable=0;fillColor=none;top=0;left=0;bottom=0;right=0;overflow=hidden;" vertex="1" parent="Zur8WcbYSqsSACDa6_yI-15">
          <mxGeometry x="220" width="50" height="27" as="geometry" />
        </mxCell>
        <mxCell id="Zur8WcbYSqsSACDa6_yI-20" value="After successful upload user will get btach id which can be used to know the status for bulk upload from the table." style="text;html=1;strokeColor=none;fillColor=none;align=center;verticalAlign=middle;whiteSpace=wrap;rounded=0;" vertex="1" parent="1">
          <mxGeometry x="830" y="130" width="230" height="70" as="geometry" />
        </mxCell>
        <mxCell id="Zur8WcbYSqsSACDa6_yI-34" value="Fetch bulk onboard merchants status list from database" style="shape=table;startSize=30;container=1;collapsible=0;childLayout=tableLayout;fontStyle=1;align=center;" vertex="1" parent="1">
          <mxGeometry x="1100" y="160" width="350" height="130" as="geometry" />
        </mxCell>
        <mxCell id="Zur8WcbYSqsSACDa6_yI-35" value="" style="shape=partialRectangle;html=1;whiteSpace=wrap;collapsible=0;dropTarget=0;pointerEvents=0;fillColor=none;top=0;left=0;bottom=0;right=0;points=[[0,0.5],[1,0.5]];portConstraint=eastwest;" vertex="1" parent="Zur8WcbYSqsSACDa6_yI-34">
          <mxGeometry y="30" width="350" height="20" as="geometry" />
        </mxCell>
        <mxCell id="Zur8WcbYSqsSACDa6_yI-36" value="batch Id" style="shape=partialRectangle;html=1;whiteSpace=wrap;connectable=0;fillColor=none;top=0;left=0;bottom=0;right=0;overflow=hidden;" vertex="1" parent="Zur8WcbYSqsSACDa6_yI-35">
          <mxGeometry width="118" height="20" as="geometry" />
        </mxCell>
        <mxCell id="Zur8WcbYSqsSACDa6_yI-37" value="" style="shape=partialRectangle;html=1;whiteSpace=wrap;connectable=0;fillColor=none;top=0;left=0;bottom=0;right=0;overflow=hidden;" vertex="1" parent="Zur8WcbYSqsSACDa6_yI-35">
          <mxGeometry x="118" width="114" height="20" as="geometry" />
        </mxCell>
        <mxCell id="Zur8WcbYSqsSACDa6_yI-38" value="Status" style="shape=partialRectangle;html=1;whiteSpace=wrap;connectable=0;fillColor=none;top=0;left=0;bottom=0;right=0;overflow=hidden;" vertex="1" parent="Zur8WcbYSqsSACDa6_yI-35">
          <mxGeometry x="232" width="118" height="20" as="geometry" />
        </mxCell>
        <mxCell id="Zur8WcbYSqsSACDa6_yI-39" value="" style="shape=partialRectangle;html=1;whiteSpace=wrap;collapsible=0;dropTarget=0;pointerEvents=0;fillColor=none;top=0;left=0;bottom=0;right=0;points=[[0,0.5],[1,0.5]];portConstraint=eastwest;" vertex="1" parent="Zur8WcbYSqsSACDa6_yI-34">
          <mxGeometry y="50" width="350" height="40" as="geometry" />
        </mxCell>
        <mxCell id="Zur8WcbYSqsSACDa6_yI-40" value="&lt;span&gt;batch Id&lt;/span&gt;" style="shape=partialRectangle;html=1;whiteSpace=wrap;connectable=0;fillColor=none;top=0;left=0;bottom=0;right=0;overflow=hidden;" vertex="1" parent="Zur8WcbYSqsSACDa6_yI-39">
          <mxGeometry width="118" height="40" as="geometry" />
        </mxCell>
        <mxCell id="Zur8WcbYSqsSACDa6_yI-41" value="" style="shape=partialRectangle;html=1;whiteSpace=wrap;connectable=0;fillColor=none;top=0;left=0;bottom=0;right=0;overflow=hidden;" vertex="1" parent="Zur8WcbYSqsSACDa6_yI-39">
          <mxGeometry x="118" width="114" height="40" as="geometry" />
        </mxCell>
        <mxCell id="Zur8WcbYSqsSACDa6_yI-42" value="&lt;span&gt;Status&lt;/span&gt;" style="shape=partialRectangle;html=1;whiteSpace=wrap;connectable=0;fillColor=none;top=0;left=0;bottom=0;right=0;overflow=hidden;" vertex="1" parent="Zur8WcbYSqsSACDa6_yI-39">
          <mxGeometry x="232" width="118" height="40" as="geometry" />
        </mxCell>
        <mxCell id="Zur8WcbYSqsSACDa6_yI-43" value="" style="shape=partialRectangle;html=1;whiteSpace=wrap;collapsible=0;dropTarget=0;pointerEvents=0;fillColor=none;top=0;left=0;bottom=0;right=0;points=[[0,0.5],[1,0.5]];portConstraint=eastwest;" vertex="1" parent="Zur8WcbYSqsSACDa6_yI-34">
          <mxGeometry y="90" width="350" height="40" as="geometry" />
        </mxCell>
        <mxCell id="Zur8WcbYSqsSACDa6_yI-44" value="&lt;span&gt;batch Id&lt;/span&gt;" style="shape=partialRectangle;html=1;whiteSpace=wrap;connectable=0;fillColor=none;top=0;left=0;bottom=0;right=0;overflow=hidden;" vertex="1" parent="Zur8WcbYSqsSACDa6_yI-43">
          <mxGeometry width="118" height="40" as="geometry" />
        </mxCell>
        <mxCell id="Zur8WcbYSqsSACDa6_yI-45" value="" style="shape=partialRectangle;html=1;whiteSpace=wrap;connectable=0;fillColor=none;top=0;left=0;bottom=0;right=0;overflow=hidden;" vertex="1" parent="Zur8WcbYSqsSACDa6_yI-43">
          <mxGeometry x="118" width="114" height="40" as="geometry" />
        </mxCell>
        <mxCell id="Zur8WcbYSqsSACDa6_yI-46" value="&lt;span&gt;Status&lt;/span&gt;" style="shape=partialRectangle;html=1;whiteSpace=wrap;connectable=0;fillColor=none;top=0;left=0;bottom=0;right=0;overflow=hidden;" vertex="1" parent="Zur8WcbYSqsSACDa6_yI-43">
          <mxGeometry x="232" width="118" height="40" as="geometry" />
        </mxCell>
        <mxCell id="Zur8WcbYSqsSACDa6_yI-47" value="upload and preview excel file(upload again)" style="shape=ext;double=1;rounded=0;whiteSpace=wrap;html=1;" vertex="1" parent="1">
          <mxGeometry x="1100" y="110" width="160" height="35" as="geometry" />
        </mxCell>
        <mxCell id="Zur8WcbYSqsSACDa6_yI-49" value="Fetch bulk onboard merchants status list from database" style="shape=table;startSize=30;container=1;collapsible=0;childLayout=tableLayout;fontStyle=1;align=center;" vertex="1" parent="1">
          <mxGeometry x="1032.5" y="512.5" width="350" height="130" as="geometry" />
        </mxCell>
        <mxCell id="Zur8WcbYSqsSACDa6_yI-50" value="" style="shape=partialRectangle;html=1;whiteSpace=wrap;collapsible=0;dropTarget=0;pointerEvents=0;fillColor=none;top=0;left=0;bottom=0;right=0;points=[[0,0.5],[1,0.5]];portConstraint=eastwest;" vertex="1" parent="Zur8WcbYSqsSACDa6_yI-49">
          <mxGeometry y="30" width="350" height="20" as="geometry" />
        </mxCell>
        <mxCell id="Zur8WcbYSqsSACDa6_yI-51" value="batch Id" style="shape=partialRectangle;html=1;whiteSpace=wrap;connectable=0;fillColor=none;top=0;left=0;bottom=0;right=0;overflow=hidden;" vertex="1" parent="Zur8WcbYSqsSACDa6_yI-50">
          <mxGeometry width="118" height="20" as="geometry" />
        </mxCell>
        <mxCell id="Zur8WcbYSqsSACDa6_yI-52" value="" style="shape=partialRectangle;html=1;whiteSpace=wrap;connectable=0;fillColor=none;top=0;left=0;bottom=0;right=0;overflow=hidden;" vertex="1" parent="Zur8WcbYSqsSACDa6_yI-50">
          <mxGeometry x="118" width="114" height="20" as="geometry" />
        </mxCell>
        <mxCell id="Zur8WcbYSqsSACDa6_yI-53" value="Status" style="shape=partialRectangle;html=1;whiteSpace=wrap;connectable=0;fillColor=none;top=0;left=0;bottom=0;right=0;overflow=hidden;" vertex="1" parent="Zur8WcbYSqsSACDa6_yI-50">
          <mxGeometry x="232" width="118" height="20" as="geometry" />
        </mxCell>
        <mxCell id="Zur8WcbYSqsSACDa6_yI-54" value="" style="shape=partialRectangle;html=1;whiteSpace=wrap;collapsible=0;dropTarget=0;pointerEvents=0;fillColor=none;top=0;left=0;bottom=0;right=0;points=[[0,0.5],[1,0.5]];portConstraint=eastwest;" vertex="1" parent="Zur8WcbYSqsSACDa6_yI-49">
          <mxGeometry y="50" width="350" height="40" as="geometry" />
        </mxCell>
        <mxCell id="Zur8WcbYSqsSACDa6_yI-55" value="&lt;span&gt;batch Id&lt;/span&gt;" style="shape=partialRectangle;html=1;whiteSpace=wrap;connectable=0;fillColor=none;top=0;left=0;bottom=0;right=0;overflow=hidden;" vertex="1" parent="Zur8WcbYSqsSACDa6_yI-54">
          <mxGeometry width="118" height="40" as="geometry" />
        </mxCell>
        <mxCell id="Zur8WcbYSqsSACDa6_yI-56" value="" style="shape=partialRectangle;html=1;whiteSpace=wrap;connectable=0;fillColor=none;top=0;left=0;bottom=0;right=0;overflow=hidden;" vertex="1" parent="Zur8WcbYSqsSACDa6_yI-54">
          <mxGeometry x="118" width="114" height="40" as="geometry" />
        </mxCell>
        <mxCell id="Zur8WcbYSqsSACDa6_yI-57" value="&lt;span&gt;Status&lt;/span&gt;" style="shape=partialRectangle;html=1;whiteSpace=wrap;connectable=0;fillColor=none;top=0;left=0;bottom=0;right=0;overflow=hidden;" vertex="1" parent="Zur8WcbYSqsSACDa6_yI-54">
          <mxGeometry x="232" width="118" height="40" as="geometry" />
        </mxCell>
        <mxCell id="Zur8WcbYSqsSACDa6_yI-58" value="" style="shape=partialRectangle;html=1;whiteSpace=wrap;collapsible=0;dropTarget=0;pointerEvents=0;fillColor=none;top=0;left=0;bottom=0;right=0;points=[[0,0.5],[1,0.5]];portConstraint=eastwest;" vertex="1" parent="Zur8WcbYSqsSACDa6_yI-49">
          <mxGeometry y="90" width="350" height="40" as="geometry" />
        </mxCell>
        <mxCell id="Zur8WcbYSqsSACDa6_yI-59" value="&lt;span&gt;batch Id&lt;/span&gt;" style="shape=partialRectangle;html=1;whiteSpace=wrap;connectable=0;fillColor=none;top=0;left=0;bottom=0;right=0;overflow=hidden;" vertex="1" parent="Zur8WcbYSqsSACDa6_yI-58">
          <mxGeometry width="118" height="40" as="geometry" />
        </mxCell>
        <mxCell id="Zur8WcbYSqsSACDa6_yI-60" value="" style="shape=partialRectangle;html=1;whiteSpace=wrap;connectable=0;fillColor=none;top=0;left=0;bottom=0;right=0;overflow=hidden;" vertex="1" parent="Zur8WcbYSqsSACDa6_yI-58">
          <mxGeometry x="118" width="114" height="40" as="geometry" />
        </mxCell>
        <mxCell id="Zur8WcbYSqsSACDa6_yI-61" value="&lt;span&gt;Status&lt;/span&gt;" style="shape=partialRectangle;html=1;whiteSpace=wrap;connectable=0;fillColor=none;top=0;left=0;bottom=0;right=0;overflow=hidden;" vertex="1" parent="Zur8WcbYSqsSACDa6_yI-58">
          <mxGeometry x="232" width="118" height="40" as="geometry" />
        </mxCell>
        <mxCell id="Zur8WcbYSqsSACDa6_yI-62" value="Fetch bulk onboard merchants status list" style="shape=table;startSize=30;container=1;collapsible=0;childLayout=tableLayout;fontStyle=1;align=center;" vertex="1" parent="1">
          <mxGeometry x="60" y="580" width="270" height="110" as="geometry" />
        </mxCell>
        <mxCell id="Zur8WcbYSqsSACDa6_yI-63" value="" style="shape=partialRectangle;html=1;whiteSpace=wrap;collapsible=0;dropTarget=0;pointerEvents=0;fillColor=none;top=0;left=0;bottom=0;right=0;points=[[0,0.5],[1,0.5]];portConstraint=eastwest;" vertex="1" parent="Zur8WcbYSqsSACDa6_yI-62">
          <mxGeometry y="30" width="270" height="27" as="geometry" />
        </mxCell>
        <mxCell id="Zur8WcbYSqsSACDa6_yI-64" value="" style="shape=partialRectangle;html=1;whiteSpace=wrap;connectable=0;fillColor=none;top=0;left=0;bottom=0;right=0;overflow=hidden;" vertex="1" parent="Zur8WcbYSqsSACDa6_yI-63">
          <mxGeometry width="40" height="27" as="geometry" />
        </mxCell>
        <mxCell id="Zur8WcbYSqsSACDa6_yI-65" value="No data avialable Now" style="shape=partialRectangle;html=1;whiteSpace=wrap;connectable=0;fillColor=none;top=0;left=0;bottom=0;right=0;overflow=hidden;" vertex="1" parent="Zur8WcbYSqsSACDa6_yI-63">
          <mxGeometry x="40" width="180" height="27" as="geometry" />
        </mxCell>
        <mxCell id="Zur8WcbYSqsSACDa6_yI-66" value="" style="shape=partialRectangle;html=1;whiteSpace=wrap;connectable=0;fillColor=none;top=0;left=0;bottom=0;right=0;overflow=hidden;" vertex="1" parent="Zur8WcbYSqsSACDa6_yI-63">
          <mxGeometry x="220" width="50" height="27" as="geometry" />
        </mxCell>
        <mxCell id="Zur8WcbYSqsSACDa6_yI-67" value="" style="shape=partialRectangle;html=1;whiteSpace=wrap;collapsible=0;dropTarget=0;pointerEvents=0;fillColor=none;top=0;left=0;bottom=0;right=0;points=[[0,0.5],[1,0.5]];portConstraint=eastwest;" vertex="1" parent="Zur8WcbYSqsSACDa6_yI-62">
          <mxGeometry y="57" width="270" height="26" as="geometry" />
        </mxCell>
        <mxCell id="Zur8WcbYSqsSACDa6_yI-68" value="" style="shape=partialRectangle;html=1;whiteSpace=wrap;connectable=0;fillColor=none;top=0;left=0;bottom=0;right=0;overflow=hidden;" vertex="1" parent="Zur8WcbYSqsSACDa6_yI-67">
          <mxGeometry width="40" height="26" as="geometry" />
        </mxCell>
        <mxCell id="Zur8WcbYSqsSACDa6_yI-69" value="" style="shape=partialRectangle;html=1;whiteSpace=wrap;connectable=0;fillColor=none;top=0;left=0;bottom=0;right=0;overflow=hidden;" vertex="1" parent="Zur8WcbYSqsSACDa6_yI-67">
          <mxGeometry x="40" width="180" height="26" as="geometry" />
        </mxCell>
        <mxCell id="Zur8WcbYSqsSACDa6_yI-70" value="" style="shape=partialRectangle;html=1;whiteSpace=wrap;connectable=0;fillColor=none;top=0;left=0;bottom=0;right=0;overflow=hidden;" vertex="1" parent="Zur8WcbYSqsSACDa6_yI-67">
          <mxGeometry x="220" width="50" height="26" as="geometry" />
        </mxCell>
        <mxCell id="Zur8WcbYSqsSACDa6_yI-71" value="" style="shape=partialRectangle;html=1;whiteSpace=wrap;collapsible=0;dropTarget=0;pointerEvents=0;fillColor=none;top=0;left=0;bottom=0;right=0;points=[[0,0.5],[1,0.5]];portConstraint=eastwest;" vertex="1" parent="Zur8WcbYSqsSACDa6_yI-62">
          <mxGeometry y="83" width="270" height="27" as="geometry" />
        </mxCell>
        <mxCell id="Zur8WcbYSqsSACDa6_yI-72" value="" style="shape=partialRectangle;html=1;whiteSpace=wrap;connectable=0;fillColor=none;top=0;left=0;bottom=0;right=0;overflow=hidden;" vertex="1" parent="Zur8WcbYSqsSACDa6_yI-71">
          <mxGeometry width="40" height="27" as="geometry" />
        </mxCell>
        <mxCell id="Zur8WcbYSqsSACDa6_yI-73" value="" style="shape=partialRectangle;html=1;whiteSpace=wrap;connectable=0;fillColor=none;top=0;left=0;bottom=0;right=0;overflow=hidden;" vertex="1" parent="Zur8WcbYSqsSACDa6_yI-71">
          <mxGeometry x="40" width="180" height="27" as="geometry" />
        </mxCell>
        <mxCell id="Zur8WcbYSqsSACDa6_yI-74" value="" style="shape=partialRectangle;html=1;whiteSpace=wrap;connectable=0;fillColor=none;top=0;left=0;bottom=0;right=0;overflow=hidden;" vertex="1" parent="Zur8WcbYSqsSACDa6_yI-71">
          <mxGeometry x="220" width="50" height="27" as="geometry" />
        </mxCell>
        <mxCell id="Zur8WcbYSqsSACDa6_yI-75" value="upload and preview excel file(upload again)" style="shape=ext;double=1;rounded=0;whiteSpace=wrap;html=1;" vertex="1" parent="1">
          <mxGeometry x="1040" y="460" width="160" height="35" as="geometry" />
        </mxCell>
      </root>
    </mxGraphModel>
  </diagram>
</mxfile>
